<svg xmlns="http://www.w3.org/2000/svg" viewBox="0 0 1440 320" preserveAspectRatio="none"><path fill="#66a6ff" fill-opacity="1" d="M0,96L34.3,85.3C68.6,75,137,53,206,74.7C274.3,96,343,160,411,160C480,160,549,96,617,101.3C685.7,107,754,181,823,218.7C891.4,256,960,256,1029,229.3C1097.1,203,1166,149,1234,128C1302.9,107,1371,117,1406,122.7L1440,128L1440,320L1405.7,320C1371.4,320,1303,320,1234,320C1165.7,320,1097,320,1029,320C960,320,891,320,823,320C754.3,320,686,320,617,320C548.6,320,480,320,411,320C342.9,320,274,320,206,320C137.1,320,69,320,34,320L0,320Z"></path></svg>